<svg width="20" height="20" viewBox="0 0 20 20" fill="none" xmlns="http://www.w3.org/2000/svg">
<g opacity="0.8" clip-path="url(#clip0_121_45777)">
<path fill-rule="evenodd" clip-rule="evenodd" d="M9.99968 2.49967C5.85754 2.49967 2.49967 5.85754 2.49967 9.99968C2.49967 14.1418 5.85754 17.4997 9.99968 17.4997C14.1418 17.4997 17.4997 14.1418 17.4997 9.99968C17.4997 5.85754 14.1418 2.49967 9.99968 2.49967ZM0.833008 9.99968C0.833008 4.93706 4.93706 0.833008 9.99968 0.833008C15.0623 0.833008 19.1663 4.93706 19.1663 9.99968C19.1663 15.0623 15.0623 19.1663 9.99968 19.1663C4.93706 19.1663 0.833008 15.0623 0.833008 9.99968Z" fill="#637381"/>
<path fill-rule="evenodd" clip-rule="evenodd" d="M0.833008 10.0003C0.833008 9.54009 1.2061 9.16699 1.66634 9.16699H18.333C18.7932 9.16699 19.1663 9.54009 19.1663 10.0003C19.1663 10.4606 18.7932 10.8337 18.333 10.8337H1.66634C1.2061 10.8337 0.833008 10.4606 0.833008 10.0003Z" fill="#637381"/>
<path fill-rule="evenodd" clip-rule="evenodd" d="M7.49987 9.99984C7.55698 12.5622 8.43822 15.0291 9.99967 17.0408C11.5611 15.0291 12.4424 12.5622 12.4995 9.99984C12.4424 7.43748 11.5611 4.97055 9.99967 2.95884C8.43822 4.97055 7.55698 7.43748 7.49987 9.99984ZM9.99967 1.66651L9.38439 1.10449C7.16375 3.5356 5.90177 6.69056 5.83319 9.98249C5.83295 9.99406 5.83295 10.0056 5.83319 10.0172C5.90177 13.3091 7.16375 16.4641 9.38439 18.8952C9.54227 19.068 9.76557 19.1665 9.99967 19.1665C10.2338 19.1665 10.4571 19.068 10.615 18.8952C12.8356 16.4641 14.0976 13.3091 14.1662 10.0172C14.1664 10.0056 14.1664 9.99406 14.1662 9.98249C14.0976 6.69056 12.8356 3.5356 10.615 1.10449L9.99967 1.66651Z" fill="#637381"/>
</g>
<defs>
<clipPath id="clip0_121_45777">
<rect width="20" height="20" fill="white"/>
</clipPath>
</defs>
</svg>
