<svg width="168" height="49" viewBox="0 0 168 49" fill="none" xmlns="http://www.w3.org/2000/svg">
<g filter="url(#filter0_d_121_53827)">
<path opacity="0.56" d="M19.4837 3.41667C19.4837 1.52896 21.0235 0 22.9246 0H24.645C36.0472 0 45.2902 9.17802 45.2902 20.5V37.5833C45.2902 39.471 43.7504 41 41.8493 41H40.1289C28.7268 41 19.4837 31.822 19.4837 20.5V3.41667Z" fill="white"/>
<path opacity="0.88" d="M21.2043 40.9997C30.706 40.9997 38.4086 33.3512 38.4086 23.9163C38.4086 14.4815 30.706 6.83301 21.2043 6.83301C11.7026 6.83301 4 14.4815 4 23.9163C4 33.3512 11.7026 40.9997 21.2043 40.9997Z" fill="white"/>
<path d="M68.8184 32.5732H74.5586L66.4997 10.25H60.2244L52.172 32.5732H57.8464L59.1806 28.63H67.4838L68.8184 32.5732ZM66.0903 24.4325H60.6077L63.329 16.2601L66.0903 24.4325ZM85.1544 25.9271L81.0653 14.8291H75.0081L82.2081 31.969L78.1458 41H83.9849L95.0825 14.8291H89.2167L85.1544 25.9271ZM102.461 24.3371C102.461 21.2844 103.954 20.394 106.524 20.394H108.01V14.6383C105.632 14.6383 103.696 15.9103 102.461 17.7864V14.8291H97.0378V32.5732H102.461V24.3371ZM127.913 23.7011C127.913 18.0726 123.923 14.5747 118.718 14.5747C113.552 14.5747 109.523 18.0726 109.523 23.7011C109.523 29.3296 113.46 32.8275 118.658 32.8275C123.857 32.8275 127.913 29.3296 127.913 23.7011ZM115.045 23.7011C115.045 20.6802 116.756 19.281 118.718 19.281C120.62 19.281 122.397 20.6802 122.397 23.7011C122.397 26.6903 120.594 28.1213 118.658 28.1213C116.69 28.1213 115.045 26.6903 115.045 23.7011ZM139.658 24.4007C139.658 30.1564 143.397 32.7958 147.968 32.7958C152.532 32.7958 156.305 30.1564 156.305 24.4007V10.409H153.418V24.4325C153.418 28.5029 151.264 30.2518 147.994 30.2518C144.731 30.2518 142.545 28.5029 142.545 24.4325V10.409H139.658V24.4007ZM161.12 32.5732H164V10.409H161.12V32.5732Z" fill="white"/>
</g>
<defs>
<filter id="filter0_d_121_53827" x="0" y="0" width="168" height="49" filterUnits="userSpaceOnUse" color-interpolation-filters="sRGB">
<feFlood flood-opacity="0" result="BackgroundImageFix"/>
<feColorMatrix in="SourceAlpha" type="matrix" values="0 0 0 0 0 0 0 0 0 0 0 0 0 0 0 0 0 0 127 0" result="hardAlpha"/>
<feOffset dy="4"/>
<feGaussianBlur stdDeviation="2"/>
<feComposite in2="hardAlpha" operator="out"/>
<feColorMatrix type="matrix" values="0 0 0 0 0 0 0 0 0 0 0 0 0 0 0 0 0 0 0.25 0"/>
<feBlend mode="normal" in2="BackgroundImageFix" result="effect1_dropShadow_121_53827"/>
<feBlend mode="normal" in="SourceGraphic" in2="effect1_dropShadow_121_53827" result="shape"/>
</filter>
</defs>
</svg>
